<svg width="90" height="81" viewBox="0 0 90 81" fill="none" xmlns="http://www.w3.org/2000/svg">
    <mask id="path-1-inside-1_1219_2" fill="white">
        <path fill-rule="evenodd" clip-rule="evenodd"
            d="M48.8343 0.368513C46.0411 0.870024 41.3217 1.71308 38.5179 2.21147C37.2952 2.42878 35.2719 2.7897 34.0217 3.01344C32.7715 3.23723 30.6245 3.62065 29.2507 3.86548C27.8768 4.11035 25.55 4.52535 24.08 4.78776C19.9258 5.52932 18.0915 5.85649 13.4888 6.6769C11.1395 7.09563 8.2113 7.61813 6.98173 7.838C5.7521 8.05786 3.72879 8.41893 2.48548 8.64035C1.24211 8.86177 0.174255 9.0536 0.112406 9.0667L0 9.09048L0.0124896 40.4887L0.0250291 71.8869L0.749425 72.0151C1.14784 72.0855 2.44051 72.3159 3.62203 72.5271C8.76624 73.4463 11.9808 74.0198 13.5637 74.3009C14.498 74.4668 16.6449 74.8496 18.3348 75.1516C20.0246 75.4535 22.5875 75.9109 24.03 76.168C25.4726 76.425 27.4397 76.7759 28.4014 76.9477C29.3631 77.1195 31.51 77.5026 33.1724 77.7991C34.8348 78.0955 38.3531 78.723 40.9909 79.1934C43.6287 79.6638 46.9222 80.251 48.3098 80.4982C49.6974 80.7453 50.8833 80.9594 50.9451 80.9738L51.0575 81V76.9301V72.8602L68.7552 72.8478L86.453 72.8353L86.8526 72.7282C88.1519 72.38 89.0753 71.6484 89.6209 70.5352C89.7272 70.3183 89.856 69.9919 89.9071 69.8099C89.9972 69.489 90 68.6032 90 40.5011V11.5232L89.8881 11.1214C89.4745 9.63623 88.3216 8.58079 86.7005 8.20322C86.3765 8.12778 85.1626 8.1214 68.7053 8.1084L51.0575 8.0944V4.05622C51.0575 1.83518 51.0406 0.0100952 51.02 0.000404368C50.9994 -0.00928644 50.0158 0.156403 48.8343 0.368513ZM86.428 40.4775V69.55L68.7302 69.5381L51.0325 69.5262V66.9499V64.3736L57.2148 64.3615L63.3972 64.3495V60.6627V56.9758L57.2148 56.9638L51.0325 56.9518V55.6991V54.4464L57.2398 54.4344L63.4471 54.4224V50.7591V47.0959L57.2398 47.0839L51.0325 47.0719V45.701V44.3301L57.2273 44.3189L63.4222 44.3076L63.435 40.6436L63.4477 36.9797L57.2401 36.9677L51.0325 36.9557V35.5139V34.0721L57.2398 34.06L63.4471 34.048V30.3848V26.7216L57.2398 26.7096L51.0325 26.6976V25.3503V24.0031L57.2148 23.9911L63.3972 23.9791V20.2922V16.6053L57.2148 16.5933L51.0325 16.5813L51.0195 14.0523C51.0124 12.6613 51.0173 11.4966 51.0304 11.4641C51.0495 11.417 54.6377 11.405 68.7412 11.405H86.428V40.4775ZM66.5945 20.2922V23.9794H73.6636H80.7327V20.2922V16.605H73.6636H66.5945V20.2922ZM34.2623 27.2058C33.7687 28.0962 33.1439 29.2184 32.8737 29.6994C32.6036 30.1804 32.0063 31.2546 31.5465 32.0866C31.0867 32.9186 30.3622 34.2269 29.9367 34.9939C29.0638 36.5671 28.254 38.0301 27.6666 39.0949L27.2689 39.816L27.9785 41.0804C28.3688 41.7757 28.8622 42.6531 29.0751 43.0301C29.2878 43.4071 29.6817 44.1091 29.9503 44.5901C30.219 45.0711 30.6242 45.7944 30.8508 46.1974C31.0774 46.6004 31.5463 47.4353 31.8929 48.0528C32.2394 48.6703 32.8012 49.6701 33.1414 50.2746C33.4816 50.8791 34.0911 51.9693 34.4958 52.6973C34.9006 53.4253 35.2648 54.0707 35.3052 54.1314C35.3455 54.1922 35.3676 54.2522 35.3543 54.2648C35.307 54.3096 28.3522 53.8405 28.293 53.7886C28.2609 53.7604 27.9997 53.2374 27.7126 52.6264C26.5827 50.222 25.1103 47.1042 24.5311 45.8901C23.855 44.4727 23.7471 44.1927 23.5793 43.4186C23.5157 43.1253 23.4485 42.9019 23.43 42.9223C23.4115 42.9426 23.3675 43.0869 23.3323 43.2429C23.1699 43.9616 22.8343 44.784 22.0202 46.4574C21.5522 47.4194 20.7762 49.0148 20.2958 50.0028C19.8154 50.9908 19.2773 52.097 19.1 52.4609C18.9227 52.8249 18.7588 53.141 18.7357 53.1633C18.6982 53.1996 12.6907 52.8314 12.6463 52.7901C12.6362 52.7807 12.7967 52.4795 13.0029 52.1207C13.2091 51.7618 13.9106 50.5216 14.5618 49.3646C15.6716 47.3928 16.1187 46.6007 16.9364 45.1574C17.7652 43.6947 18.1277 43.0521 18.9097 41.6592C19.3696 40.8403 19.7781 40.117 19.8176 40.052C19.8863 39.939 19.8146 39.7888 18.1817 36.6248C17.2425 34.8048 16.0972 32.5818 15.6367 31.6848C15.1762 30.7878 14.4482 29.3751 14.0189 28.5454C13.5896 27.7158 13.2457 27.03 13.2546 27.0216C13.2674 27.0095 18.2673 26.6728 19.2826 26.6156L19.5061 26.603L19.7955 27.2649C19.9546 27.6288 20.3007 28.4266 20.5645 29.0376C20.8282 29.6486 21.4934 31.1802 22.0425 32.4412C23.05 34.7546 23.3356 35.4892 23.5422 36.2987C23.6044 36.5424 23.6722 36.7421 23.6928 36.7424C23.7134 36.7427 23.7303 36.713 23.7303 36.6764C23.7303 36.5675 24.274 34.9081 24.452 34.4739C24.5923 34.1314 25.3078 32.623 26.9856 29.1321C27.1793 28.7291 27.5852 27.8782 27.8876 27.2412C28.1901 26.6042 28.4545 26.0657 28.4753 26.0443C28.511 26.0078 34.1951 25.6052 34.8529 25.5926L35.1595 25.5867L34.2623 27.2058ZM66.5945 30.3848V34.0484H73.6636H80.7327V30.3848V26.7212H73.6636H66.5945V30.3848ZM66.6067 40.6432L66.6195 44.3072L73.6761 44.3186L80.7327 44.3301V40.6547V36.9793H73.6633H66.5939L66.6067 40.6432ZM66.5945 50.7591V54.4227H73.6636H80.7327V50.7591V47.0956H73.6636H66.5945V50.7591ZM66.5945 60.6627V64.3499H73.6636H80.7327V60.6627V56.9754H73.6636H66.5945V60.6627Z" />
    </mask>
    <path fill-rule="evenodd" clip-rule="evenodd"
        d="M48.8343 0.368513C46.0411 0.870024 41.3217 1.71308 38.5179 2.21147C37.2952 2.42878 35.2719 2.7897 34.0217 3.01344C32.7715 3.23723 30.6245 3.62065 29.2507 3.86548C27.8768 4.11035 25.55 4.52535 24.08 4.78776C19.9258 5.52932 18.0915 5.85649 13.4888 6.6769C11.1395 7.09563 8.2113 7.61813 6.98173 7.838C5.7521 8.05786 3.72879 8.41893 2.48548 8.64035C1.24211 8.86177 0.174255 9.0536 0.112406 9.0667L0 9.09048L0.0124896 40.4887L0.0250291 71.8869L0.749425 72.0151C1.14784 72.0855 2.44051 72.3159 3.62203 72.5271C8.76624 73.4463 11.9808 74.0198 13.5637 74.3009C14.498 74.4668 16.6449 74.8496 18.3348 75.1516C20.0246 75.4535 22.5875 75.9109 24.03 76.168C25.4726 76.425 27.4397 76.7759 28.4014 76.9477C29.3631 77.1195 31.51 77.5026 33.1724 77.7991C34.8348 78.0955 38.3531 78.723 40.9909 79.1934C43.6287 79.6638 46.9222 80.251 48.3098 80.4982C49.6974 80.7453 50.8833 80.9594 50.9451 80.9738L51.0575 81V76.9301V72.8602L68.7552 72.8478L86.453 72.8353L86.8526 72.7282C88.1519 72.38 89.0753 71.6484 89.6209 70.5352C89.7272 70.3183 89.856 69.9919 89.9071 69.8099C89.9972 69.489 90 68.6032 90 40.5011V11.5232L89.8881 11.1214C89.4745 9.63623 88.3216 8.58079 86.7005 8.20322C86.3765 8.12778 85.1626 8.1214 68.7053 8.1084L51.0575 8.0944V4.05622C51.0575 1.83518 51.0406 0.0100952 51.02 0.000404368C50.9994 -0.00928644 50.0158 0.156403 48.8343 0.368513ZM86.428 40.4775V69.55L68.7302 69.5381L51.0325 69.5262V66.9499V64.3736L57.2148 64.3615L63.3972 64.3495V60.6627V56.9758L57.2148 56.9638L51.0325 56.9518V55.6991V54.4464L57.2398 54.4344L63.4471 54.4224V50.7591V47.0959L57.2398 47.0839L51.0325 47.0719V45.701V44.3301L57.2273 44.3189L63.4222 44.3076L63.435 40.6436L63.4477 36.9797L57.2401 36.9677L51.0325 36.9557V35.5139V34.0721L57.2398 34.06L63.4471 34.048V30.3848V26.7216L57.2398 26.7096L51.0325 26.6976V25.3503V24.0031L57.2148 23.9911L63.3972 23.9791V20.2922V16.6053L57.2148 16.5933L51.0325 16.5813L51.0195 14.0523C51.0124 12.6613 51.0173 11.4966 51.0304 11.4641C51.0495 11.417 54.6377 11.405 68.7412 11.405H86.428V40.4775ZM66.5945 20.2922V23.9794H73.6636H80.7327V20.2922V16.605H73.6636H66.5945V20.2922ZM34.2623 27.2058C33.7687 28.0962 33.1439 29.2184 32.8737 29.6994C32.6036 30.1804 32.0063 31.2546 31.5465 32.0866C31.0867 32.9186 30.3622 34.2269 29.9367 34.9939C29.0638 36.5671 28.254 38.0301 27.6666 39.0949L27.2689 39.816L27.9785 41.0804C28.3688 41.7757 28.8622 42.6531 29.0751 43.0301C29.2878 43.4071 29.6817 44.1091 29.9503 44.5901C30.219 45.0711 30.6242 45.7944 30.8508 46.1974C31.0774 46.6004 31.5463 47.4353 31.8929 48.0528C32.2394 48.6703 32.8012 49.6701 33.1414 50.2746C33.4816 50.8791 34.0911 51.9693 34.4958 52.6973C34.9006 53.4253 35.2648 54.0707 35.3052 54.1314C35.3455 54.1922 35.3676 54.2522 35.3543 54.2648C35.307 54.3096 28.3522 53.8405 28.293 53.7886C28.2609 53.7604 27.9997 53.2374 27.7126 52.6264C26.5827 50.222 25.1103 47.1042 24.5311 45.8901C23.855 44.4727 23.7471 44.1927 23.5793 43.4186C23.5157 43.1253 23.4485 42.9019 23.43 42.9223C23.4115 42.9426 23.3675 43.0869 23.3323 43.2429C23.1699 43.9616 22.8343 44.784 22.0202 46.4574C21.5522 47.4194 20.7762 49.0148 20.2958 50.0028C19.8154 50.9908 19.2773 52.097 19.1 52.4609C18.9227 52.8249 18.7588 53.141 18.7357 53.1633C18.6982 53.1996 12.6907 52.8314 12.6463 52.7901C12.6362 52.7807 12.7967 52.4795 13.0029 52.1207C13.2091 51.7618 13.9106 50.5216 14.5618 49.3646C15.6716 47.3928 16.1187 46.6007 16.9364 45.1574C17.7652 43.6947 18.1277 43.0521 18.9097 41.6592C19.3696 40.8403 19.7781 40.117 19.8176 40.052C19.8863 39.939 19.8146 39.7888 18.1817 36.6248C17.2425 34.8048 16.0972 32.5818 15.6367 31.6848C15.1762 30.7878 14.4482 29.3751 14.0189 28.5454C13.5896 27.7158 13.2457 27.03 13.2546 27.0216C13.2674 27.0095 18.2673 26.6728 19.2826 26.6156L19.5061 26.603L19.7955 27.2649C19.9546 27.6288 20.3007 28.4266 20.5645 29.0376C20.8282 29.6486 21.4934 31.1802 22.0425 32.4412C23.05 34.7546 23.3356 35.4892 23.5422 36.2987C23.6044 36.5424 23.6722 36.7421 23.6928 36.7424C23.7134 36.7427 23.7303 36.713 23.7303 36.6764C23.7303 36.5675 24.274 34.9081 24.452 34.4739C24.5923 34.1314 25.3078 32.623 26.9856 29.1321C27.1793 28.7291 27.5852 27.8782 27.8876 27.2412C28.1901 26.6042 28.4545 26.0657 28.4753 26.0443C28.511 26.0078 34.1951 25.6052 34.8529 25.5926L35.1595 25.5867L34.2623 27.2058ZM66.5945 30.3848V34.0484H73.6636H80.7327V30.3848V26.7212H73.6636H66.5945V30.3848ZM66.6067 40.6432L66.6195 44.3072L73.6761 44.3186L80.7327 44.3301V40.6547V36.9793H73.6633H66.5939L66.6067 40.6432ZM66.5945 50.7591V54.4227H73.6636H80.7327V50.7591V47.0956H73.6636H66.5945V50.7591ZM66.5945 60.6627V64.3499H73.6636H80.7327V60.6627V56.9754H73.6636H66.5945V60.6627Z"
        fill="white" stroke="white" stroke-width="4" mask="url(#path-1-inside-1_1219_2)" />
</svg>
    